<svg width="57" height="55" viewBox="0 0 57 55" fill="none" xmlns="http://www.w3.org/2000/svg">
<path d="M26.7513 0.854608C28.3116 4.10528 32.2774 14.1173 33.5777 18.2782L25.386 21.1388C24.1508 17.0429 20.51 7.55098 18.6246 3.52016L26.7513 0.854608ZM56.3974 6.05567C55.6822 7.68101 55.0971 9.69642 54.707 11.1267C52.8867 18.2132 49.1809 28.5503 43.8498 35.5717C37.0234 44.6086 27.5315 51.1749 18.2996 54.6857L11.0181 47.3391C19.8599 44.8036 30.002 38.9524 36.6984 30.5657C41.5744 24.3894 45.6052 13.2722 46.7104 3.32511L56.3974 6.05567ZM8.61259 4.88544C10.628 9.04629 14.6588 18.7333 16.1541 23.0892L7.83243 26.1448C6.46715 21.9839 2.17627 11.2567 0.355894 7.81103L8.61259 4.88544Z" fill="url(#paint0_linear_20_6)"/>
<defs>
<linearGradient id="paint0_linear_20_6" x1="29" y1="-11.5" x2="29" y2="67.5" gradientUnits="userSpaceOnUse">
<stop stop-color="#6000FC"/>
<stop offset="1" stop-color="#EB5A09"/>
</linearGradient>
</defs>
</svg>
